<?xml version="1.0" encoding="UTF-8"?>
<svg version="1.1" viewBox="0 0 1024 1024" width="1024" height="1024" xmlns="http://www.w3.org/2000/svg">
<path transform="translate(0)" d="m0 0h1024v1024h-1024z" fill="#FDFDFD"/>
<path transform="translate(260,346)" d="m0 0h274l5 3 8 8 10 14 6 13 3 11 2 23 3 15 7 14 8 8 2 1-1 4-8 7-30 30-8 7-73 73-6 1-14-10-18-14-13-10-12-9-17-14-14-11-18-14-16-12-15-12-18-13-16-13-17-13-16-13-17-13-14-11-10-9-1-4 4-12 7-11 10-8 9-4z" fill="#1A7DF1"/>
<path transform="translate(216,442)" d="m0 0 5 2 16 13 12 9 16 13 13 10 16 12 14 11 15 12 13 10 12 10 16 12 38 29 14 11 17 13 2 4-7 7-8 7-2 3h-2l-2 4-16 15-43 43-8 7-16 16-9 14-6 8-1 1-25 1-32-1-12-4-9-6-8-7-7-11-4-10-1-4z" fill="#1A7DF1"/>
<path transform="translate(736,524)" d="m0 0 4 1 1 1v170l-4 12-7 11-11 11-10 5-11 3-10 1-212-1-2-1 2-4 165-165 8-7 16-17 6-6 5 1 9 4 4 1h17l12-4 9-6 7-7z" fill="#1A7DF1"/>
<path transform="translate(650,368)" d="m0 0h7l9 4 12 12 8 7 5 4 7 8 13 13 8 7 19 19 6 5 4 10v9l-4 8-34 34-8 4-7 1-10-3-8-7-5-5h-5l-14 14-8 7-250 250-10 5-3 1h-8l-9-3-7-6-5-10v-13l5-10 270-270 1-4-7-8-19-19-3-6-1-8 3-8 7-8 10-10 8-7 13-13z" fill="#1BB3AD"/>
<path transform="translate(587,237)" d="m0 0h8l5 4 3 12 4 13 6 9 9 8 11 4 13 3 5 3 2 3v10l-4 5-21 6-10 6-7 8-5 10-5 19-6 5-9-1-5-6-5-16-4-8-9-10-8-4-19-5-5-5-1-3v-10l5-6 21-6 10-6 7-8 4-8 5-21z" fill="#1BB3AD"/>
<path transform="translate(712,284)" d="m0 0h7l5 5 4 12 4 6 6 5 11 4 5 3 2 3v8l-4 4-16 6-8 9-5 16-5 3-8-1-4-6-4-12-7-8-11-5-6-3-3-4v-8l4-4 14-5 7-6 4-7 4-12z" fill="#1BB3AD"/>
</svg>
